HIERARCHY
ROOT Hips
{
	OFFSET	0.00	0.00	0.00
	CHANNELS 6 Xposition Yposition Zposition Zrotation Xrotation Yrotation
	JOINT Spine
	{
		OFFSET	 0.00	0.01	 0.00
		CHANNELS 3 Zrotation Xrotation Yrotation
		JOINT Spine1
		{
			OFFSET	 0.00	 2.45913012437421	 0.00
			CHANNELS 3 Zrotation Xrotation Yrotation
            JOINT Neck
            {
                OFFSET	 0.00	 2.48462964506057	 0.00
                CHANNELS 3 Zrotation Xrotation Yrotation
                JOINT Head
                {
                    OFFSET	 0.00	 0.927524780924562	 0.00
                    CHANNELS 3 Zrotation Xrotation Yrotation
                    End Site 
                    {
                        OFFSET	 0.00	 1.14999962169752	 0.00
                    }
                }
            }
			JOINT LeftShoulder
			{
				OFFSET	 0.00	 2.48462964506057	 0.00
				CHANNELS 3 Zrotation Xrotation Yrotation
				JOINT LeftUpArm
				{
					OFFSET	 0.00	 1.24881979654096	 0.00
					CHANNELS 3 Zrotation Xrotation Yrotation
					JOINT LeftForeArm
					{
						OFFSET	 0.00	2.59758046908119	 0.00
						CHANNELS 3 Zrotation Xrotation Yrotation
						JOINT LeftHand
						{
							OFFSET	 0.00	2.45542024364365	 0.00
							CHANNELS 3 Zrotation Xrotation Yrotation
							JOINT LeftHandThumb 
							{
								OFFSET	 0.00	0.00	 0.00
								CHANNELS 3 Zrotation Xrotation Yrotation
								End Site
								{
									OFFSET	 0.00	0.00	1.00000003353624
								}
							}
							JOINT L_Wrist_End 
							{
								OFFSET	 0.00	0.99999967115358	 0.00
								CHANNELS 3 Zrotation Xrotation Yrotation
								End Site 
								{
									OFFSET	 0.00	 0.00	 0.00
								}
							}
						}
					}
				}
			}
			JOINT RightShoulder
			{
				OFFSET	 0.00	 2.48462964506057	 0.00
				CHANNELS 3 Zrotation Xrotation Yrotation
				JOINT RightUpArm
				{
					OFFSET	 0.00	 1.24881979654096	 0.00
					CHANNELS 3 Zrotation Xrotation Yrotation
					JOINT RightForeArm
					{
						OFFSET	 0.00	2.59758046908119	 0.00
						CHANNELS 3 Zrotation Xrotation Yrotation
						JOINT RightHand
						{
							OFFSET	 0.00	2.45542024364365	 0.00
							CHANNELS 3 Zrotation Xrotation Yrotation
							JOINT RightHandThumb 
							{
								OFFSET	 0.00	0.00	 0.00
								CHANNELS 3 Zrotation Xrotation Yrotation
								End Site
								{
									OFFSET	 0.00	0.00	1.00000003353624
								}
							}
							JOINT R_Wrist_End 
							{
								OFFSET	 0.00	0.99999967115358	 0.00
								CHANNELS 3 Zrotation Xrotation Yrotation
								End Site 
								{
									OFFSET	 0.00	 0.00	 0.00
								}
							}
						}
					}
				}
			}
		}
	}
	JOINT LeftUpLeg
	{
		OFFSET	 1.2719394002717	 0.00	 0.00
		CHANNELS 3 Zrotation Xrotation Yrotation
		JOINT LeftLowLeg
		{
			OFFSET	 0.00	-4.3429100912261	 0.00
			CHANNELS 3 Zrotation Xrotation Yrotation
			JOINT LeftFoot
			{
				OFFSET	 0.00	-4.48767017425826	 0.00
				CHANNELS 3 Zrotation Xrotation Yrotation
				JOINT LeftToeBase
                {
                    OFFSET	 0.00	0.00	 1.51507020887566
                    CHANNELS 3 Zrotation Xrotation Yrotation
                    End Site 
                    {
                        OFFSET	 0.00	0.00	 0.75000010571191
                    }
                }
			}
		}
	}
	JOINT RightUpLeg
	{
		OFFSET	 -1.2719393604653	 0.00	 0.00
		CHANNELS 3 Zrotation Xrotation Yrotation
		JOINT RightLowLeg
		{
			OFFSET	 0.00	-4.3429100912261	 0.00
			CHANNELS 3 Zrotation Xrotation Yrotation
			JOINT RightFoot
			{
				OFFSET	 0.00	-4.48767017425826	 0.00
				CHANNELS 3 Zrotation Xrotation Yrotation
				JOINT RightToeBase
                {
                    OFFSET	 0.00	0.00	 1.51507020887566
                    CHANNELS 3 Zrotation Xrotation Yrotation
                    End Site 
                    {
                        OFFSET	 0.00	0.00	 0.749999965609858
                    }
                }   
			}
		}
	}
}
MOTION 
Frames:	8 
Frame Time: 0.02 
  2.69510009765625 5.723729858398437 1.0069599914550782 -91.0397 69.8176 -719.306 2.13364 22.3119 98.3265 14.1586 -0.202311 -97.8596 5.71012 35.6012 -421.399 82.8791 -34.7494 82.8119 -113.0611 9.79426 28.0482 -21.3475 55.139 -2.46312 0.0 35.9934 0.0 39.6205 -15.9272 38.5637 0.0 0.0 0.0 0.0 0.0 0.0 117.4609 1.95611 -332.258 56.0442 14.0012 -411.068 0.0 47.6503 0.0 -33.8119 1.1062 -44.3519 0.0 0.0 0.0 0.0 0.0 0.0 98.9369 -43.4166 -574.274 0.0 127.705 0.0 -44.7592 31.9246 -8.56592 0.0 -24.46674 0.0 -80.2057 -47.3857 939.646 0.0 121.083 0.0 35.565 26.7697 15.2342 0.0 -28.781 0.0 
  2.7085699462890624 5.718209838867187 0.9837689971923829 -90.5555 68.9723 -719.781 2.31186 21.332 98.0473 15.4276 -0.162681 -98.0837 4.73154 36.7795 -420.33 83.879 -34.9112 83.2885 -113.723495 10.5302 29.8719 -16.7072 55.4686 -6.10955 0.0 34.2585 0.0 39.0954 -16.3733 37.3037 0.0 0.0 0.0 0.0 0.0 0.0 117.7531 2.29652 -332.726 56.4754 15.5766 -411.253 0.0 45.9071 0.0 -33.2869 0.210993 -43.7209 0.0 0.0 0.0 0.0 0.0 0.0 98.9035 -44.0566 -574.877 0.0 127.579 0.0 -43.7466 30.9637 -8.89548 0.0 -22.46952 0.0 -80.5095 -47.6929 940.201 0.0 120.998 0.0 35.9712 26.454601 14.8137 0.0 -28.5874 0.0 
  2.72593994140625 5.713809814453125 0.9591359710693359 -89.7607 68.1377 -720.614 2.24936 20.6049 97.9215 16.2541 -0.188427 -98.344 4.6213 38.1449 -420.303 84.9655 -34.985 84.3508 -114.4517 11.5049 30.1273 -14.8457 54.6891 -7.00567 0.0 32.8847 0.0 38.7338 -16.5111 36.5335 0.0 0.0 0.0 0.0 0.0 0.0 117.975296 2.47888 -333.539 57.0701 17.4257 -411.292 0.0 44.0299 0.0 -32.2252 -0.808031 -42.248 0.0 0.0 0.0 0.0 0.0 0.0 98.7554 -44.6025 -575.371 0.0 127.377 0.0 -42.6363 30.1251 -8.94163 0.0 -21.576271 0.0 -81.0822 -48.169 940.629 0.0 120.854 0.0 35.5529 26.0108 14.2779 0.0 -29.019001 0.0 
  2.7441400146484374 5.708989868164062 0.9335189819335937 -89.0957 67.2436 -721.273 2.31398 19.8971 97.679 17.1424 -0.061283 -98.6848 3.92435 39.7573 -419.431 86.0671 -35.0342 85.0396 -114.889496 12.3731 29.9105 -14.2134 54.0729 -7.50693 0.0 31.225 0.0 38.537 -15.8245 36.2529 0.0 0.0 0.0 0.0 0.0 0.0 118.2169 2.61813 -334.045 57.9432 19.1505 -411.723 0.0 41.7445 0.0 -31.0012 -1.06721 -42.2763 0.0 0.0 0.0 0.0 0.0 0.0 98.7116 -45.2426 -575.764 0.0 127.148 0.0 -39.5734 28.946499 -9.16236 0.0 -20.89966 0.0 -81.7211 -48.6226 941.106 0.0 120.787 0.0 36.4672 25.663399 13.6978 0.0 -28.353 0.0 
  2.7622799682617187 5.70343017578125 0.9084639739990235 -88.5197 66.2797 -721.844 2.34114 19.2309 97.4454 18.0845 0.0180163 -98.9939 3.29653 41.3533 -418.535 86.9462 -35.0118 85.5786 -115.3911 13.1345 29.4877 -14.0935 53.6002 -7.84111 0.0 29.649 0.0 39.0015 -15.1023 36.3557 0.0 0.0 0.0 0.0 0.0 0.0 118.2622 2.90035 -334.607 58.7595 20.6938 -411.961 0.0 39.7671 0.0 -29.8591 -1.3339 -41.7674 0.0 0.0 0.0 0.0 0.0 0.0 98.8461 -45.9536 -576.285 0.0 126.946 0.0 -37.6653 28.1582 -9.19786 0.0 -19.692131 0.0 -82.4494 -49.091 941.606 0.0 120.76 0.0 37.3814 25.4071 12.9771 0.0 -27.8623 0.0 
  2.7815899658203125 5.699530029296875 0.8824320220947266 -88.204 65.4486 -722.258 2.25105 18.4828 97.3732 19.0617 -0.124153 -99.0424 2.59924 42.6075 -417.554 87.313 -35.0172 85.7558 -116.0242 13.5261 29.4955 -13.3643 53.9602 -9.10262 0.0 28.2095 0.0 39.5906 -15.3201 38.7281 0.0 0.0 0.0 0.0 0.0 0.0 117.899796 2.97774 -335.569 59.7114 22.5027 -411.621 0.0 38.1889 0.0 -28.7501 -2.47343 -41.7697 0.0 0.0 0.0 0.0 0.0 0.0 99.3475 -46.5394 -576.362 0.0 126.869 0.0 -35.1601 27.1641 -9.0645 0.0 -18.70182 0.0 -83.1987 -49.7774 941.935 0.0 120.686 0.0 39.9872 25.384201 11.9199 0.0 -25.635601 0.0 
  2.799179992675781 5.6981298828125 0.8602580261230469 -87.9247 64.5009 -722.689 2.26315 18.0947 97.3123 19.6955 0.0740461 -99.254 2.25482 44.0004 -416.773 87.484 -34.8704 85.7487 -115.633896 14.1472 27.8343 -16.6517 53.7677 -7.98102 0.0 27.0016 0.0 40.7041 -13.9208 42.9245 0.0 0.0 0.0 0.0 0.0 0.0 117.7457 3.05931 -336.379 60.5184 23.7919 -411.428 0.0 37.0756 0.0 -28.1994 -3.77132 -40.9833 0.0 0.0 0.0 0.0 0.0 0.0 99.7644 -47.018 -576.63 0.0 126.849 0.0 -39.1252 28.4935 -7.6943 0.0 -24.11499 0.0 -83.9253 -50.4635 942.444 0.0 120.553 0.0 40.2525 25.6347 11.1348 0.0 -28.2647 0.0 
  2.82010986328125 5.6960400390625 0.8436409759521485 -87.8027 63.6469 -723.095 2.29812 17.8542 97.3453 20.1572 0.296905 -99.3444 2.2331 45.2117 -416.4 87.4353 -34.7063 85.7206 -115.708 14.2176 27.4332 -17.4391 54.0339 -8.21786 0.0 26.0028 0.0 41.2856 -12.7553 44.5426 0.0 0.0 0.0 0.0 0.0 0.0 117.5125 3.08145 -336.839 61.3838 24.6186 -411.369 0.0 36.1781 0.0 -27.4002 -4.62587 -40.8259 0.0 0.0 0.0 0.0 0.0 0.0 100.307 -47.2804 -576.773 0.0 127.036 0.0 -36.6656 27.0941 -7.59285 0.0 -22.82797 0.0 -83.9717 -51.5285 943.067 0.0 120.456 0.0 41.883 24.106121 10.7796 0.0 -26.4239 0.0 
